PathFileType	4	(X/Y/Z)	C:/Users/beibeiliu/ov580/test_trc\sequence.26_training_dense_left.trc
DataRate	CameraRate	NumFrames	NumMarkers	Units	OrigDataRate	OrigDataStartFrame	OrigNumFrames
120	120	15	19	mm	120	351	400
Frame#	Time	ThumbCMC			ThumbMCP			ThumbIP			ThumbTip			IndexMCP			IndexPIP			IndexTip			MiddleMCP			MiddlePIP			MiddleTip			RingMCP			RingPIP			RingTip			PinkyMCP			PinkyPIP			PinkyTip			BackHand1			BackHand2			BackHand3	
		X0	Y0	Z0	X1	Y1	Z1	X2	Y2	Z2	X3	Y3	Z3	X4	Y4	Z4	X5	Y5	Z5	X6	Y6	Z6	X7	Y7	Z7	X8	Y8	Z8	X9	Y9	Z9	X10	Y10	Z10	X11	Y11	Z11	X12	Y12	Z12	X13	Y13	Z13	X14	Y14	Z14	X15	Y15	Z15	X16	Y16	Z16	X17	Y17	Z17	X18	Y18	Z18	
350	2.91667	-183.377	14.687	26.325	-179.509	-11.8591	18.7636	-174.829	-28.9341	8.88874	-168.724	-44.3713	0.594735	-218.273	-24.3016	-14.0439	-216.901	-37.6764	7.91159	-202.953	-11.6241	21.7915	-236.483	-23.9511	-4.38526	-226.851	-37.4541	18.4555	-209.741	-11.9045	30.5608	-247.551	-14.148	1.49812	-234.964	-31.828	21.0164	-220.143	-10.2967	28.1576	-266.859	11.6267	12.7921	-283.834	-4.8463	2.10112	-292.959	-25.9324	-2.0884	-236.618	29.3259	13.7775	-221.811	46.2787	30.0391	-208.105	37.5761	14.696	
351	2.925	-181.444	11.714	25.2918	-178.31	-15.2509	18.3134	-175.482	-33.8847	6.77273	-172.349	-46.5307	-1.06765	-215.7	-21.8377	-15.8643	-217.325	-37.8393	3.23936	-203.113	-11.9953	20.1344	-237.489	-18.7193	-5.96226	-227.396	-39.139	12.2874	-214.785	-15.115	31.8608	-252.129	-15.2417	2.01849	-238.869	-29.9545	20.8122	-225.083	-11.1608	31.4118	-264.449	13.4635	9.04215	-279.588	4.49902	-0.456956	-296.586	-8.95541	-5.43463	-230.114	33.6201	16.2627	-222.459	45.09	33.1629	-202.825	35.3304	13.3512	
352	2.93333	-182.978	9.90222	26.0963	-180.857	-15.0483	18.8055	-180.003	-35.5238	2.11421	-176.928	-48.2012	-3.1602	-215.541	-18.0904	-19.104	-215.035	-37.0893	3.36879	-207.589	-13.0655	19.6764	-235.389	-13.6041	-11.1557	-233.099	-36.2782	9.13523	-210.603	-14.0657	28.2484	-252.531	-12.0685	-0.928446	-240.79	-28.3248	13.6031	-222.973	-9.66166	26.5215	-268.484	18.3709	5.80881	-279.777	9.27266	-4.1995	-295.674	3.12394	-12.4051	-231.998	36.2693	12.6921	-220.157	47.0982	36.986	-202.996	37.1505	16.1051	
353	2.94167	-184.836	8.04319	23.9682	-183.41	-16.5904	16.3129	-182.202	-34.5653	-0.782626	-178.218	-47.4119	-7.0895	-220.06	-15.5101	-21.8707	-220.904	-33.3053	-0.700322	-205.915	-15.3769	16.0512	-235.009	-14.9058	-15.8661	-230.866	-33.0063	6.54569	-215.719	-13.5409	26.7367	-250.767	-3.97746	-5.90041	-240.947	-26.1987	8.97356	-224.356	-11.7358	22.9494	-265.973	23.4232	2.25857	-276.613	15.702	-11.4744	-292.346	12.1843	-17.9532	-227.911	36.128	11.939	-214.35	45.9092	34.7845	-199.228	35.4264	12.7073	
354	2.95	-180.193	5.2945	24.5709	-181.084	-18.8366	10.8197	-180.229	-33.5023	-4.80125	-177.474	-46.9967	-15.8659	-214.754	-10.972	-27.4239	-221.75	-30.4834	-8.50006	-207.7	-16.9107	11.2778	-234.783	-4.63873	-19.8796	-233.799	-29.6322	-0.175353	-218.763	-13.8849	21.607	-246.992	0.502731	-13.7143	-241.571	-21.8291	0.92311	-226.403	-7.28074	18.9627	-257.191	27.6011	-3.74809	-275.583	24.5424	-17.1671	-285.28	21.6962	-29.9237	-222.163	40.7489	11.077	-213.184	49.3795	36.3224	-196.333	34.7641	16.708	
355	2.95833	-181.506	3.83056	24.3369	-181.039	-19.13	8.45241	-178.782	-32.6812	-11.0784	-173.034	-44.0311	-17.4585	-213.751	-7.51337	-31.3667	-223.033	-27.3862	-14.1064	-208.985	-17.5117	6.51001	-234.089	-4.4067	-25.9457	-234.283	-26.9747	-8.7089	-221.102	-13.373	16.4775	-245.635	6.51867	-19.47	-242.524	-18.3506	-6.01783	-227.098	-8.82931	11.6374	-258.774	32.4345	-11.1507	-269.032	28.0237	-25.8875	-283.716	29.9209	-35.7488	-223.899	42.4455	10.4813	-210.582	46.1679	32.1764	-192.955	33.7136	11.6262	
356	2.96667	-181.592	2.02408	22.305	-182.674	-17.8291	4.00744	-179.198	-29.6014	-10.8698	-168.157	-43.46	-24.5769	-209.665	-6.40177	-35.9939	-220.748	-25.6105	-24.6081	-211.806	-12.2431	3.20315	-228.479	0.702824	-31.6058	-234.749	-23.132	-14.1205	-219.195	-10.5303	12.5649	-239.465	7.47594	-27.2442	-241.136	-16.2199	-13.2993	-229.277	-5.72783	9.44945	-251.998	34.7967	-18.5798	-263.758	32.986	-32.9844	-275.878	34.689	-45.8529	-221.531	40.9653	7.54377	-209.975	42.5119	34.1915	-190.23	32.6863	12.7468	
357	2.975	-182.849	-0.3543	23.0859	-180.05	-18.3824	5.31444	-173.415	-28.8657	-16.8428	-168.321	-38.2484	-27.0918	-206.139	-1.61165	-38.5354	-218.058	-23.8278	-29.3403	-213.05	-14.7336	-2.21117	-221.501	2.45199	-34.8832	-232.434	-21.4023	-22.2002	-216.748	-11.0341	8.08792	-236.968	10.1083	-31.7939	-242.452	-13.7287	-20.0133	-226.31	-8.02536	3.39562	-249.385	35.6001	-22.4305	-258.993	35.4966	-34.3027	-274.193	36.6726	-51.6512	-219.01	41.4255	8.39538	-213.814	42.1474	32.8834	-193.138	31.9722	15.8867	
358	2.98333	-182.551	-1.55218	23.2838	-180.691	-18.4316	3.41616	-173.427	-26.0218	-15.896	-164.623	-35.177	-29.6544	-200.332	0.566145	-40.5815	-217.994	-20.9602	-34.3531	-209.308	-13.0583	-4.57287	-223.286	2.01264	-39.3725	-230.275	-21.7957	-23.7693	-219.217	-10.9646	4.19197	-240.167	9.98993	-35.1885	-243.626	-11.473	-24.1314	-230.907	-6.93364	2.85542	-252.239	37.5575	-23.3911	-262.785	36.4876	-38.5737	-267.18	38.135	-54.6463	-218.166	40.8942	3.45455	-216.932	42.281	31.3789	-191.818	28.5353	16.1843	
359	2.99167	-185.359	-0.0281035	18.8506	-180.695	-15.8686	2.54735	-170.292	-24.7534	-15.6698	-161.522	-32.8204	-28.9139	-198.928	-0.324741	-42.502	-212.597	-22.4296	-34.4042	-208.875	-14.03	-6.82248	-218.795	4.56276	-40.4606	-228.657	-20.0809	-30.0811	-218.326	-7.72763	2.97273	-237.259	13.5548	-34.934	-241.764	-13.6176	-24.7704	-231.81	-9.0209	-0.142852	-247.541	34.3723	-22.8998	-259.398	34.6867	-38.2766	-271.323	35.8747	-57.7234	-222.444	41.4468	4.6282	-221.766	39.2264	33.8691	-193.208	28.5282	12.7052	
360	3	-186.159	-2.08233	19.7211	-184.581	-14.4197	2.36148	-174.271	-20.3951	-21.3051	-161.078	-28.7456	-31.4484	-204.045	2.59081	-42.9104	-214.416	-22.2452	-34.8249	-211.195	-11.9359	-8.5949	-219.79	2.77942	-41.4762	-230.116	-22.1976	-27.7785	-215.199	-9.70838	0.293673	-239.495	13.6084	-36.1068	-243.061	-14.3044	-28.6115	-231.53	-9.18793	-1.14048	-250.923	34.1847	-28.4185	-261.621	33.6562	-39.2935	-268.574	33.4042	-57.815	-224.829	39.4088	1.87999	-224.731	37.5055	28.8999	-198.458	29.3367	15.1926	
361	3.00833	-193.129	0.550933	20.2066	-184.408	-13.8794	-2.11545	-173.315	-19.3028	-21.3607	-161.66	-27.4365	-32.2377	-206.914	2.03034	-43.4832	-216.753	-21.4499	-39.0361	-211.335	-14.5733	-8.40707	-221.466	5.00744	-40.6469	-228.948	-23.4645	-31.9269	-219.573	-13.4066	-1.46212	-240.972	10.7011	-36.4655	-243.104	-17.7458	-27.1257	-232.444	-12.4745	-2.21693	-256.537	32.0764	-25.4987	-265.839	29.836	-43.351	-275.252	32.1825	-61.8056	-225.855	35.6461	6.35504	-224.474	34.0697	32.8325	-204.961	29.3729	15.5108	
362	3.01667	-195.616	0.464397	21.8765	-183.231	-14.0333	-2.12896	-173.755	-20.0499	-18.6768	-162.685	-26.0976	-35.2195	-206.676	2.38141	-42.3743	-217.887	-21.7546	-38.2722	-211.035	-15.2311	-8.73457	-229.176	4.15042	-39.7222	-229.169	-25.76	-29.8806	-219.923	-14.0805	-1.69368	-242.561	7.52487	-37.6619	-241.127	-17.7501	-31.386	-231.219	-11.9736	-2.32299	-258.603	27.8674	-27.4855	-270.742	25.8499	-44.0206	-277.553	26.4627	-60.02	-229.845	36.1767	6.22991	-230.349	35.0555	28.3099	-208.827	30.5665	14.3802	
363	3.025	-195.919	2.83024	20.6814	-188.922	-10.5341	-3.25378	-177.694	-17.1765	-17.5253	-167.274	-21.9846	-35.6245	-207.339	2.90811	-43.2262	-217.463	-23.4015	-39.5701	-210.639	-14.6009	-9.15022	-230.288	1.40667	-41.339	-231.506	-26.2285	-32.2589	-223.702	-14.5908	-1.29235	-244.082	5.75083	-37.3959	-243.235	-20.8601	-29.8438	-236.196	-15.6709	-3.90197	-263.164	25.5509	-28.4815	-275.255	22.4062	-41.4452	-283.877	23.8128	-57.5177	-235.227	34.6093	4.57027	-232.298	32.5664	30.6937	-207.886	30.7568	13.4345	
364	3.03333	-196.762	3.8431	19.365	-190.092	-6.30156	-3.49982	-179.317	-12.4903	-22.7384	-171.419	-18.1985	-35.1512	-213.572	1.99861	-46.1091	-219.856	-22.5045	-39.9755	-216.115	-17.9476	-11.3804	-231.46	1.79929	-43.0045	-230.725	-28.2195	-32.745	-224.968	-17.8448	-3.3148	-249.311	3.34673	-38.4373	-244.375	-22.3177	-29.976	-235.31	-17.836	-5.96742	-269.954	23.4786	-25.3724	-275.939	19.7593	-45.4553	-282.954	18.8709	-60.7079	-243.443	34.6895	5.45993	-236.289	32.815	31.0618	-213.928	32.197	10.1915	
